<svg width="20" height="20" viewBox="0 0 20 20" fill="none" xmlns="http://www.w3.org/2000/svg">
<path d="M9.99988 7.62939e-05C15.5199 7.62939e-05 19.9999 4.48008 19.9999 10.0001C19.9999 15.5301 15.5199 20.0001 9.99988 20.0001C4.46988 20.0001 -0.00012207 15.5301 -0.00012207 10.0001C-0.00012207 4.48008 4.46988 7.62939e-05 9.99988 7.62939e-05ZM13.8499 6.71008C13.9599 6.36008 13.6399 6.03008 13.2899 6.14008L8.16988 7.74008C7.95988 7.81008 7.78988 7.97008 7.72988 8.18008L6.12988 13.3101C6.01988 13.6501 6.34988 13.9801 6.68988 13.8701L11.7899 12.2701C11.9999 12.2101 12.1699 12.0401 12.2299 11.8301L13.8499 6.71008Z" fill="#636882"/>
</svg>
