<svg width="112" height="112" viewBox="0 0 112 112" fill="none" xmlns="http://www.w3.org/2000/svg">
<circle cx="56" cy="56" r="54.5" fill="#54A8E5" stroke="white" stroke-width="3"/>
<path d="M58.9225 31.6667C59.5 31.6667 59.9852 32.1567 59.9852 32.74V40.2534C59.9852 44.5234 63.4505 48.0234 67.7013 48.0467C69.434 48.0467 70.8433 48.07 71.8829 48.07L72.2765 48.0683C72.9866 48.0629 73.9428 48.0467 74.7706 48.0467C75.3713 48.0467 75.8334 48.5134 75.8334 49.0967V67.8567C75.8334 73.6434 71.1667 78.3334 65.4373 78.3334H47.071C41.0413 78.3334 36.1667 73.41 36.1667 67.3434V42.19C36.1667 36.4034 40.8103 31.6667 46.5858 31.6667H58.9225ZM55.1568 47.3934C54.2096 47.3934 53.4241 48.1634 53.4241 49.1434V60.39L49.7508 56.6567C49.0809 55.98 47.9951 55.98 47.3251 56.6567C46.6551 57.3334 46.6551 58.43 47.3251 59.13L53.9324 65.8267C54.0941 65.99 54.2789 66.1067 54.4868 66.2C54.6947 66.2934 54.9258 66.34 55.1568 66.34C55.3878 66.34 55.5957 66.2934 55.8037 66.2C56.0116 66.1067 56.1964 65.99 56.3581 65.8267L62.9885 59.13C63.6584 58.43 63.6584 57.3334 62.9654 56.6567C62.2954 55.98 61.2096 55.98 60.5396 56.6567L56.8664 60.39V49.1434C56.8664 48.1634 56.104 47.3934 55.1568 47.3934ZM63.3385 33.7809C63.3385 32.7753 64.5467 32.2759 65.2352 33.0016C67.7348 35.6243 72.0989 40.2093 74.5385 42.7713C75.2131 43.4783 74.7187 44.6519 73.7438 44.6543C71.8471 44.6613 69.6084 44.6543 67.9982 44.6379C65.4431 44.6379 63.3385 42.5123 63.3385 39.9316V33.7809Z" fill="white"/>
</svg>
